<svg xmlns="http://www.w3.org/2000/svg" xmlns:xlink="http://www.w3.org/1999/xlink" width="500" zoomAndPan="magnify" viewBox="0 0 375 374.999991" height="500" preserveAspectRatio="xMidYMid meet" version="1.0"><defs><clipPath id="63e5f340d8"><path d="M 6.492188 159 L 52 159 L 52 250 L 6.492188 250 Z M 6.492188 159 " clip-rule="nonzero"/></clipPath><clipPath id="a0a406db67"><path d="M 323 159 L 368.742188 159 L 368.742188 250 L 323 250 Z M 323 159 " clip-rule="nonzero"/></clipPath><clipPath id="63f49eb160"><path d="M 170 40.429688 L 205 40.429688 L 205 75 L 170 75 Z M 170 40.429688 " clip-rule="nonzero"/></clipPath><clipPath id="590cb0997b"><path d="M 164 289 L 222 289 L 222 334.429688 L 164 334.429688 Z M 164 289 " clip-rule="nonzero"/></clipPath><clipPath id="a451a46091"><path d="M 112.5 218.839844 L 153 218.839844 L 153 255.589844 L 112.5 255.589844 Z M 112.5 218.839844 " clip-rule="nonzero"/></clipPath></defs><path fill="#702963" d="M 238.40625 204.464844 C 232.160156 204.464844 227.09375 199.398438 227.09375 193.152344 C 227.09375 186.90625 232.160156 181.839844 238.40625 181.839844 C 244.652344 181.839844 249.71875 186.90625 249.71875 193.152344 C 249.71875 199.398438 244.652344 204.464844 238.40625 204.464844 Z M 187.5 241.167969 C 171.878906 241.167969 159.21875 231.039062 159.21875 218.542969 L 215.78125 218.542969 C 215.78125 231.039062 203.121094 241.167969 187.5 241.167969 Z M 136.59375 204.464844 C 130.347656 204.464844 125.28125 199.398438 125.28125 193.152344 C 125.28125 186.90625 130.347656 181.839844 136.59375 181.839844 C 142.839844 181.839844 147.90625 186.90625 147.90625 193.152344 C 147.90625 199.398438 142.839844 204.464844 136.59375 204.464844 Z M 232.75 136.589844 L 142.25 136.589844 C 123.507812 136.589844 106.539062 144.1875 94.253906 156.46875 C 81.96875 168.753906 74.375 185.722656 74.375 204.464844 C 74.375 241.953125 104.761719 272.339844 142.25 272.339844 L 232.75 272.339844 C 251.492188 272.339844 268.460938 264.742188 280.746094 252.460938 C 293.027344 240.175781 300.625 223.207031 300.625 204.464844 C 300.625 166.976562 270.238281 136.589844 232.75 136.589844 " fill-opacity="1" fill-rule="nonzero"/><path fill="#702963" d="M 187.5 317.589844 L 153.5625 317.589844 C 138.292969 317.589844 123.476562 314.601562 109.527344 308.699219 C 96.054688 303 83.957031 294.84375 73.570312 284.457031 C 63.183594 274.070312 55.027344 261.972656 49.328125 248.5 C 43.425781 234.550781 40.433594 219.734375 40.433594 204.464844 C 40.433594 189.195312 43.425781 174.378906 49.328125 160.429688 C 55.027344 146.957031 63.183594 134.859375 73.570312 124.472656 C 83.957031 114.085938 96.054688 105.929688 109.527344 100.230469 C 123.476562 94.328125 138.292969 91.339844 153.5625 91.339844 L 221.4375 91.339844 C 236.707031 91.339844 251.523438 94.328125 265.472656 100.230469 C 278.945312 105.929688 291.042969 114.085938 301.429688 124.472656 C 311.816406 134.859375 319.972656 146.957031 325.671875 160.429688 C 331.574219 174.378906 334.5625 189.195312 334.5625 204.464844 L 323.25 204.464844 C 323.25 148.324219 277.578125 102.652344 221.4375 102.652344 L 153.5625 102.652344 C 97.421875 102.652344 51.75 148.324219 51.75 204.464844 C 51.75 260.605469 97.421875 306.277344 153.5625 306.277344 L 187.5 306.277344 L 187.5 317.589844 " fill-opacity="1" fill-rule="nonzero"/><g clip-path="url(#63e5f340d8)"><path fill="#702963" d="M 51.75 249.714844 C 26.757812 249.714844 6.496094 229.457031 6.496094 204.464844 C 6.496094 179.472656 26.757812 159.214844 51.75 159.214844 L 51.75 249.714844 " fill-opacity="1" fill-rule="nonzero"/></g><g clip-path="url(#a0a406db67)"><path fill="#702963" d="M 323.25 249.714844 C 348.242188 249.714844 368.503906 229.457031 368.503906 204.464844 C 368.503906 179.472656 348.242188 159.214844 323.25 159.214844 L 323.25 249.714844 " fill-opacity="1" fill-rule="nonzero"/></g><path fill="#702963" d="M 215.78125 142.246094 C 215.78125 154.738281 203.121094 164.871094 187.5 164.871094 C 171.878906 164.871094 159.21875 154.738281 159.21875 142.246094 C 159.21875 129.75 171.878906 119.621094 187.5 119.621094 C 203.121094 119.621094 215.78125 129.75 215.78125 142.246094 " fill-opacity="1" fill-rule="nonzero"/><g clip-path="url(#63f49eb160)"><path fill="#702963" d="M 204.46875 57.398438 C 204.46875 66.773438 196.871094 74.367188 187.5 74.367188 C 178.128906 74.367188 170.53125 66.773438 170.53125 57.398438 C 170.53125 48.027344 178.128906 40.429688 187.5 40.429688 C 196.871094 40.429688 204.46875 48.027344 204.46875 57.398438 " fill-opacity="1" fill-rule="nonzero"/></g><g clip-path="url(#590cb0997b)"><path fill="#702963" d="M 221.4375 311.933594 C 221.4375 324.429688 208.777344 334.558594 193.15625 334.558594 C 177.535156 334.558594 164.875 324.429688 164.875 311.933594 C 164.875 299.4375 177.535156 289.308594 193.15625 289.308594 C 208.777344 289.308594 221.4375 299.4375 221.4375 311.933594 " fill-opacity="1" fill-rule="nonzero"/></g><path fill="#702963" d="M 193.15625 159.453125 L 181.84375 159.453125 L 181.84375 57.398438 L 193.15625 57.398438 L 193.15625 159.453125 " fill-opacity="1" fill-rule="nonzero"/><g clip-path="url(#a451a46091)"><path fill="#702963" d="M 142.304688 222.699219 L 133.652344 222.699219 L 133.652344 219.8125 C 133.652344 219.546875 133.558594 219.320312 133.371094 219.132812 C 133.183594 218.945312 132.957031 218.851562 132.691406 218.851562 C 132.425781 218.851562 132.199219 218.945312 132.011719 219.132812 C 131.824219 219.320312 131.730469 219.546875 131.730469 219.8125 L 131.730469 222.699219 L 123.078125 222.699219 C 122.761719 222.699219 122.449219 222.730469 122.140625 222.792969 C 121.828125 222.851562 121.527344 222.945312 121.238281 223.066406 C 120.945312 223.1875 120.667969 223.335938 120.40625 223.511719 C 120.144531 223.683594 119.902344 223.882812 119.679688 224.109375 C 119.457031 224.332031 119.257812 224.574219 119.082031 224.835938 C 118.90625 225.097656 118.757812 225.375 118.636719 225.667969 C 118.515625 225.957031 118.425781 226.257812 118.363281 226.566406 C 118.300781 226.878906 118.269531 227.191406 118.269531 227.503906 L 118.269531 244.8125 C 118.269531 245.128906 118.300781 245.441406 118.363281 245.75 C 118.425781 246.058594 118.515625 246.359375 118.636719 246.652344 C 118.757812 246.941406 118.90625 247.21875 119.082031 247.484375 C 119.257812 247.746094 119.457031 247.988281 119.679688 248.210938 C 119.902344 248.433594 120.144531 248.632812 120.40625 248.808594 C 120.667969 248.984375 120.945312 249.132812 121.238281 249.253906 C 121.527344 249.375 121.828125 249.464844 122.140625 249.527344 C 122.449219 249.589844 122.761719 249.621094 123.078125 249.621094 L 128.332031 249.621094 L 131.890625 254.960938 C 131.980469 255.09375 132.097656 255.199219 132.238281 255.273438 C 132.378906 255.351562 132.53125 255.390625 132.691406 255.390625 C 132.851562 255.390625 133.003906 255.351562 133.144531 255.273438 C 133.285156 255.199219 133.402344 255.09375 133.492188 254.960938 L 137.050781 249.621094 L 142.304688 249.621094 C 142.621094 249.621094 142.933594 249.589844 143.242188 249.527344 C 143.554688 249.464844 143.855469 249.375 144.144531 249.253906 C 144.4375 249.132812 144.714844 248.984375 144.976562 248.808594 C 145.238281 248.632812 145.480469 248.433594 145.703125 248.210938 C 145.925781 247.988281 146.125 247.746094 146.300781 247.484375 C 146.476562 247.21875 146.625 246.941406 146.746094 246.652344 C 146.867188 246.359375 146.957031 246.058594 147.019531 245.75 C 147.082031 245.441406 147.113281 245.128906 147.113281 244.8125 L 147.113281 227.503906 C 147.113281 227.191406 147.082031 226.878906 147.019531 226.566406 C 146.957031 226.257812 146.867188 225.957031 146.746094 225.667969 C 146.625 225.375 146.476562 225.097656 146.300781 224.835938 C 146.125 224.574219 145.925781 224.332031 145.703125 224.109375 C 145.480469 223.882812 145.238281 223.683594 144.976562 223.511719 C 144.714844 223.335938 144.4375 223.1875 144.144531 223.066406 C 143.855469 222.945312 143.554688 222.851562 143.242188 222.792969 C 142.933594 222.730469 142.621094 222.699219 142.304688 222.699219 Z M 145.191406 244.8125 C 145.191406 245.195312 145.117188 245.5625 144.96875 245.917969 C 144.824219 246.269531 144.617188 246.582031 144.34375 246.851562 C 144.074219 247.121094 143.761719 247.332031 143.410156 247.476562 C 143.054688 247.625 142.6875 247.695312 142.304688 247.695312 L 136.539062 247.695312 C 136.195312 247.699219 135.929688 247.839844 135.738281 248.125 L 132.691406 252.695312 L 129.644531 248.125 C 129.453125 247.839844 129.1875 247.699219 128.84375 247.695312 L 123.078125 247.695312 C 122.695312 247.695312 122.328125 247.625 121.972656 247.476562 C 121.621094 247.332031 121.308594 247.121094 121.039062 246.851562 C 120.765625 246.582031 120.558594 246.269531 120.414062 245.917969 C 120.265625 245.5625 120.191406 245.195312 120.191406 244.8125 L 120.191406 241.929688 L 145.191406 241.929688 Z M 145.191406 240.003906 L 120.191406 240.003906 L 120.191406 227.503906 C 120.191406 227.125 120.265625 226.753906 120.414062 226.402344 C 120.558594 226.050781 120.765625 225.738281 121.039062 225.46875 C 121.308594 225.195312 121.621094 224.988281 121.972656 224.839844 C 122.328125 224.695312 122.695312 224.621094 123.078125 224.621094 L 142.304688 224.621094 C 142.6875 224.621094 143.054688 224.695312 143.410156 224.839844 C 143.761719 224.988281 144.074219 225.195312 144.34375 225.46875 C 144.617188 225.738281 144.824219 226.050781 144.96875 226.402344 C 145.117188 226.753906 145.191406 227.125 145.191406 227.503906 Z M 128.84375 233.273438 C 128.84375 233.53125 128.796875 233.773438 128.699219 234.011719 C 128.601562 234.246094 128.460938 234.453125 128.28125 234.632812 C 128.101562 234.816406 127.894531 234.953125 127.660156 235.050781 C 127.421875 235.148438 127.175781 235.199219 126.921875 235.199219 C 126.667969 235.199219 126.421875 235.148438 126.1875 235.050781 C 125.949219 234.953125 125.742188 234.816406 125.5625 234.632812 C 125.382812 234.453125 125.242188 234.246094 125.144531 234.011719 C 125.046875 233.773438 125 233.53125 125 233.273438 C 125 233.019531 125.046875 232.773438 125.144531 232.539062 C 125.242188 232.304688 125.382812 232.09375 125.5625 231.914062 C 125.742188 231.734375 125.949219 231.597656 126.1875 231.5 C 126.421875 231.402344 126.667969 231.351562 126.921875 231.351562 C 127.175781 231.351562 127.421875 231.402344 127.660156 231.5 C 127.894531 231.597656 128.101562 231.734375 128.28125 231.914062 C 128.460938 232.09375 128.601562 232.304688 128.699219 232.539062 C 128.796875 232.773438 128.84375 233.019531 128.84375 233.273438 Z M 140.382812 233.273438 C 140.382812 233.53125 140.335938 233.773438 140.238281 234.011719 C 140.140625 234.246094 140 234.453125 139.820312 234.632812 C 139.640625 234.816406 139.433594 234.953125 139.195312 235.050781 C 138.960938 235.148438 138.714844 235.199219 138.460938 235.199219 C 138.207031 235.199219 137.960938 235.148438 137.722656 235.050781 C 137.488281 234.953125 137.28125 234.816406 137.101562 234.632812 C 136.921875 234.453125 136.78125 234.246094 136.683594 234.011719 C 136.585938 233.773438 136.539062 233.53125 136.539062 233.273438 C 136.539062 233.019531 136.585938 232.773438 136.683594 232.539062 C 136.78125 232.304688 136.921875 232.09375 137.101562 231.914062 C 137.28125 231.734375 137.488281 231.597656 137.722656 231.5 C 137.960938 231.402344 138.207031 231.351562 138.460938 231.351562 C 138.714844 231.351562 138.960938 231.402344 139.195312 231.5 C 139.433594 231.597656 139.640625 231.734375 139.820312 231.914062 C 140 232.09375 140.140625 232.304688 140.238281 232.539062 C 140.335938 232.773438 140.382812 233.019531 140.382812 233.273438 Z M 114.421875 229.429688 L 114.421875 237.121094 C 114.421875 237.386719 114.328125 237.613281 114.140625 237.800781 C 113.953125 237.988281 113.726562 238.082031 113.460938 238.082031 C 113.195312 238.082031 112.96875 237.988281 112.78125 237.800781 C 112.59375 237.613281 112.5 237.386719 112.5 237.121094 L 112.5 229.429688 C 112.5 229.164062 112.59375 228.9375 112.78125 228.75 C 112.96875 228.5625 113.195312 228.46875 113.460938 228.46875 C 113.726562 228.46875 113.953125 228.5625 114.140625 228.75 C 114.328125 228.9375 114.421875 229.164062 114.421875 229.429688 Z M 152.882812 229.429688 L 152.882812 237.121094 C 152.882812 237.386719 152.789062 237.613281 152.601562 237.800781 C 152.414062 237.988281 152.1875 238.082031 151.921875 238.082031 C 151.65625 238.082031 151.429688 237.988281 151.242188 237.800781 C 151.054688 237.613281 150.960938 237.386719 150.960938 237.121094 L 150.960938 229.429688 C 150.960938 229.164062 151.054688 228.9375 151.242188 228.75 C 151.429688 228.5625 151.65625 228.46875 151.921875 228.46875 C 152.1875 228.46875 152.414062 228.5625 152.601562 228.75 C 152.789062 228.9375 152.882812 229.164062 152.882812 229.429688 Z M 152.882812 229.429688 " fill-opacity="1" fill-rule="nonzero"/></g></svg>